<?xml version="1.0" encoding="utf-8"?>
<!-- Generator: Adobe Illustrator 27.2.0, SVG Export Plug-In . SVG Version: 6.00 Build 0)  -->
<svg version="1.1" id="Слой_1" xmlns="http://www.w3.org/2000/svg" xmlns:xlink="http://www.w3.org/1999/xlink" x="0px" y="0px"
	 viewBox="0 0 164.4 42.5" style="enable-background:new 0 0 164.4 42.5;" xml:space="preserve">
<style type="text/css">
	.st0{fill:none;}
	.st1{fill:#1D1D1B;}
</style>
<g>
	<rect class="st0" width="164.4" height="42.5"/>
	<g>
		<path class="st1" d="M76.7,4.1c-9.4,0-16.9,7.6-16.9,16.9S67.3,38,76.7,38s16.9-7.6,16.9-16.9S86,4.1,76.7,4.1z M74.1,8l1.9,9.5
			l-2.5-6.6L74.1,8z M71.8,8.7l4,9.1l-4.2-6.2L71.8,8.7z M75.7,18.3l-6.3-5.3l-0.3-3L75.7,18.3z M76,32.8L64.9,28V14.5L76,19.3V32.8
			z M67,14.7l-0.1-2.8l9.2,7.1L67,14.7z M75.3,10.2l0.4-2.5l0.6,9.2L75.3,10.2z M81.8,11.6l-4.2,6.2l4-9.1L81.8,11.6z M84.1,9.9
			l-0.3,3l-6.3,5.3L84.1,9.9z M79.8,10.9l-2.5,6.6L79.2,8L79.8,10.9z M77.6,7.7l0.4,2.5L77,17L77.6,7.7z M86.4,11.9l-0.1,2.8
			L77.1,19L86.4,11.9z M88.4,28l-11.1,4.8V19.3l11.1-4.8V28z"/>
		<path class="st1" d="M21.1,8.5c-0.9,0-1.8,0.1-2.5,0.4c-0.8,0.3-1.4,0.7-2,1.2c-0.6,0.5-1,1.2-1.3,1.9c-0.3,0.7-0.5,1.5-0.5,2.4
			c0,0.9,0.2,1.7,0.5,2.4c0.3,0.7,0.7,1.4,1.3,1.9c0.6,0.5,1.2,0.9,2,1.2c0.8,0.3,1.6,0.4,2.5,0.4c0.8,0,1.5-0.1,2.1-0.3
			c0.5-0.2,1-0.5,1.5-0.8v-3c-0.2,0.3-0.5,0.5-0.9,0.7c-0.3,0.2-0.7,0.4-1.1,0.6c-0.4,0.1-0.9,0.2-1.4,0.2c-0.6,0-1.2-0.1-1.7-0.4
			c-0.5-0.3-0.9-0.6-1.2-1.1c-0.3-0.5-0.5-1.1-0.5-1.8c0-0.7,0.2-1.3,0.5-1.8c0.3-0.5,0.7-0.9,1.2-1.1c0.5-0.3,1.1-0.4,1.7-0.4
			c0.5,0,1,0.1,1.4,0.2c0.4,0.1,0.8,0.3,1.1,0.6c0.3,0.2,0.6,0.5,0.9,0.7v-3c-0.5-0.4-1-0.6-1.5-0.8C22.6,8.6,22,8.5,21.1,8.5z"/>
		<path class="st1" d="M34.6,19.8c0.7-0.2,1.2-0.6,1.5-1c0.4-0.5,0.5-1.1,0.5-1.8c0-0.6-0.1-1.1-0.4-1.5c-0.3-0.4-0.6-0.7-1-1
			c-0.3-0.2-0.6-0.3-1-0.4c0.5-0.2,0.9-0.5,1.2-0.8c0.4-0.4,0.5-0.9,0.5-1.5c0-0.7-0.2-1.2-0.5-1.6c-0.4-0.4-0.8-0.7-1.4-1
			c-0.6-0.2-1.3-0.3-2.1-0.3h-4.2v11.4h4.5C33.1,20.2,33.9,20.1,34.6,19.8z M30.5,10.9h1.1c0.5,0,0.8,0.1,1.1,0.3
			c0.3,0.2,0.4,0.5,0.4,0.9c0,0.3-0.1,0.5-0.2,0.7c-0.1,0.2-0.3,0.3-0.5,0.4c-0.2,0.1-0.5,0.1-0.8,0.1h-1.1V10.9z M30.5,18v-2.8h1.4
			c0.3,0,0.5,0,0.7,0.1c0.2,0,0.4,0.1,0.6,0.2c0.2,0.1,0.3,0.2,0.4,0.4c0.1,0.2,0.1,0.4,0.1,0.6c0,0.4-0.1,0.7-0.3,0.9
			c-0.2,0.2-0.4,0.4-0.7,0.5c-0.3,0.1-0.6,0.1-1,0.1H30.5z"/>
		<rect x="39.6" y="8.8" class="st1" width="2.6" height="11.4"/>
		<polygon class="st1" points="50.4,20.2 50.4,11.2 53.6,11.2 53.6,8.8 44.6,8.8 44.6,11.2 47.7,11.2 47.7,20.2 		"/>
		<path class="st1" d="M16.6,27c-0.6-0.3-1.2-0.4-2-0.4h-2.3v-2h5.3v-2.3H9.6v11.4h0.8h2h2.3c0.7,0,1.4-0.2,2-0.5
			c0.6-0.3,1-0.7,1.4-1.3c0.3-0.5,0.5-1.2,0.5-1.8c0-0.7-0.2-1.3-0.5-1.8C17.7,27.7,17.2,27.3,16.6,27z M15.5,30.8
			c-0.1,0.2-0.3,0.3-0.6,0.4c-0.2,0.1-0.6,0.1-0.9,0.1h-1.7v-2.6h1.7c0.4,0,0.7,0,0.9,0.1c0.2,0.1,0.4,0.2,0.6,0.4
			c0.1,0.2,0.2,0.4,0.2,0.7C15.7,30.3,15.7,30.6,15.5,30.8z"/>
		<rect x="20.6" y="22.2" class="st1" width="2.6" height="11.4"/>
		<path class="st1" d="M33,27c-0.6-0.3-1.2-0.4-2-0.4h-2.3v-2H34v-2.3h-8.1v11.4h0.8h2H31c0.7,0,1.4-0.2,2-0.5
			c0.6-0.3,1-0.7,1.4-1.3c0.3-0.5,0.5-1.2,0.5-1.8c0-0.7-0.2-1.3-0.5-1.8S33.6,27.3,33,27z M31.9,30.8c-0.1,0.2-0.3,0.3-0.6,0.4
			c-0.2,0.1-0.6,0.1-0.9,0.1h-1.7v-2.6h1.7c0.4,0,0.7,0,0.9,0.1c0.2,0.1,0.4,0.2,0.6,0.4c0.1,0.2,0.2,0.4,0.2,0.7
			C32.1,30.3,32,30.6,31.9,30.8z"/>
		<path class="st1" d="M37.4,28.9c0,0.3,0,0.7-0.1,1c-0.1,0.3-0.2,0.5-0.3,0.7c-0.1,0.2-0.3,0.4-0.5,0.5c-0.2,0.1-0.5,0.2-0.7,0.2
			v2.3c1.1,0,1.9-0.2,2.6-0.5c0.7-0.4,1.1-0.9,1.5-1.6c0.3-0.7,0.5-1.6,0.5-2.7v-4.1H44v8.9h2.8V22.2h-9.3V28.9z"/>
		<rect x="49.5" y="22.2" class="st1" width="2.6" height="11.4"/>
		<path class="st1" d="M55.7,20.1c0-0.3-0.1-0.6-0.3-0.8c-0.2-0.2-0.5-0.3-0.8-0.3c-0.3,0-0.6,0.1-0.8,0.3c-0.2,0.2-0.3,0.5-0.3,0.8
			c0,0.3,0.1,0.6,0.3,0.8c0.2,0.2,0.5,0.3,0.8,0.3c0.3,0,0.6-0.1,0.8-0.3C55.6,20.7,55.7,20.4,55.7,20.1z"/>
		<rect x="54.9" y="22.2" class="st1" width="2.6" height="11.4"/>
		<path class="st1" d="M57.6,19c-0.3,0-0.6,0.1-0.8,0.3c-0.2,0.2-0.3,0.5-0.3,0.8c0,0.3,0.1,0.6,0.3,0.8c0.2,0.2,0.5,0.3,0.8,0.3
			c0.3,0,0.6-0.1,0.8-0.3c0.2-0.2,0.3-0.5,0.3-0.8c0-0.3-0.1-0.6-0.3-0.8C58.2,19.1,57.9,19,57.6,19z"/>
		<polygon class="st1" points="102.6,14.1 106.3,21 111.2,8.9 107.9,8.9 105.7,15.4 102.6,8.4 99.5,15.4 97.3,8.9 94,8.9 99,21 		
			"/>
		<path class="st1" d="M123.4,17.1c0.3-0.7,0.4-1.5,0.4-2.4c0-0.9-0.2-1.7-0.5-2.4c-0.3-0.7-0.7-1.4-1.3-1.9
			c-0.6-0.5-1.2-0.9-1.9-1.2c-0.7-0.3-1.6-0.4-2.4-0.4c-0.9,0-1.7,0.1-2.4,0.4c-0.7,0.3-1.4,0.7-2,1.2c-0.6,0.5-1,1.2-1.3,1.9
			c-0.3,0.7-0.5,1.5-0.5,2.4c0,0.9,0.1,1.7,0.4,2.4c0.3,0.7,0.7,1.4,1.3,1.9c0.5,0.5,1.2,1,1.9,1.3c0.7,0.3,1.6,0.4,2.5,0.4
			c0.9,0,1.7-0.1,2.5-0.4c0.7-0.3,1.4-0.7,1.9-1.3C122.7,18.4,123.1,17.8,123.4,17.1z M120.5,16.4c-0.3,0.5-0.6,0.9-1.1,1.2
			c-0.5,0.3-1,0.4-1.7,0.4c-0.7,0-1.2-0.1-1.7-0.4c-0.5-0.3-0.9-0.7-1.1-1.2c-0.3-0.5-0.4-1.1-0.4-1.8c0-0.7,0.1-1.3,0.4-1.8
			c0.3-0.5,0.6-0.9,1.1-1.2c0.5-0.3,1-0.4,1.7-0.4c0.7,0,1.2,0.1,1.7,0.4c0.5,0.3,0.8,0.7,1.1,1.2c0.3,0.5,0.4,1.1,0.4,1.8
			C120.9,15.3,120.8,15.9,120.5,16.4z"/>
		<path class="st1" d="M128.3,16.4h0.8l2.5,4h3.2l-3-4.3c0.1,0,0.2-0.1,0.3-0.1c0.7-0.3,1.1-0.8,1.5-1.3c0.3-0.6,0.5-1.2,0.5-1.9
			c0-0.7-0.2-1.4-0.5-1.9c-0.3-0.6-0.8-1-1.5-1.3c-0.7-0.3-1.5-0.5-2.4-0.5h-1.4h-1h-1.7v11.4h2.7V16.4z M128.3,11.3h1.2
			c0.4,0,0.7,0.1,1,0.2c0.3,0.1,0.5,0.3,0.6,0.5c0.1,0.2,0.2,0.5,0.2,0.8c0,0.3-0.1,0.6-0.2,0.8c-0.1,0.2-0.3,0.4-0.6,0.5
			c-0.3,0.1-0.6,0.2-1,0.2h-1.2V11.3z"/>
		<polygon class="st1" points="143.4,18 138.9,18 138.9,8.9 136.1,8.9 136.1,20.3 143.4,20.3 		"/>
		<path class="st1" d="M154.1,11.6c-0.5-0.8-1.2-1.5-2.1-2c-0.9-0.5-2-0.7-3.2-0.7h-1.2h-1h-1.8v11.4h1.8h1h1.2
			c1.2,0,2.3-0.2,3.2-0.7c0.9-0.5,1.6-1.1,2.1-2c0.5-0.9,0.7-1.9,0.7-3C154.9,13.5,154.6,12.4,154.1,11.6z M151.7,16.2
			c-0.2,0.4-0.4,0.8-0.7,1c-0.3,0.2-0.7,0.4-1.1,0.5c-0.4,0.1-0.8,0.2-1.3,0.2h-1.1v-6.5h1.1c0.4,0,0.9,0.1,1.3,0.2
			c0.4,0.1,0.8,0.3,1.1,0.5c0.3,0.3,0.6,0.6,0.7,1c0.2,0.4,0.3,0.9,0.3,1.6C152,15.2,151.9,15.8,151.7,16.2z"/>
		<path class="st1" d="M118.1,28.1c-0.3-0.2-0.6-0.3-1-0.4c0.5-0.2,0.9-0.5,1.2-0.8c0.4-0.4,0.5-0.9,0.5-1.5c0-0.7-0.2-1.2-0.5-1.6
			c-0.4-0.4-0.8-0.7-1.4-1c-0.6-0.2-1.3-0.3-2.1-0.3h-4.2v11.4h4.5c0.9,0,1.7-0.1,2.3-0.3c0.7-0.2,1.2-0.6,1.5-1
			c0.4-0.5,0.5-1.1,0.5-1.8c0-0.6-0.1-1.1-0.4-1.5C118.9,28.7,118.5,28.3,118.1,28.1z M113.4,24.5h1.1c0.5,0,0.8,0.1,1.1,0.3
			c0.3,0.2,0.4,0.5,0.4,0.9c0,0.3-0.1,0.5-0.2,0.7c-0.1,0.2-0.3,0.3-0.5,0.4c-0.2,0.1-0.5,0.1-0.8,0.1h-1.1V24.5z M116.4,31
			c-0.2,0.2-0.4,0.4-0.7,0.5c-0.3,0.1-0.6,0.1-1,0.1h-1.4v-2.8h1.4c0.3,0,0.5,0,0.7,0.1c0.2,0,0.4,0.1,0.6,0.2
			c0.2,0.1,0.3,0.2,0.4,0.4c0.1,0.2,0.1,0.4,0.1,0.6C116.6,30.5,116.6,30.8,116.4,31z"/>
		<rect x="121.4" y="22.4" class="st1" width="2.8" height="11.4"/>
		<path class="st1" d="M134.1,28.1c-0.3-0.2-0.6-0.3-1-0.4c0.5-0.2,0.9-0.5,1.2-0.8c0.4-0.4,0.5-0.9,0.5-1.5c0-0.7-0.2-1.2-0.5-1.6
			c-0.4-0.4-0.8-0.7-1.4-1c-0.6-0.2-1.3-0.3-2.1-0.3h-4.2v11.4h4.5c0.9,0,1.7-0.1,2.3-0.3c0.7-0.2,1.2-0.6,1.5-1
			c0.4-0.5,0.5-1.1,0.5-1.8c0-0.6-0.1-1.1-0.4-1.5C134.9,28.7,134.5,28.3,134.1,28.1z M129.4,24.5h1.1c0.5,0,0.8,0.1,1.1,0.3
			c0.3,0.2,0.4,0.5,0.4,0.9c0,0.3-0.1,0.5-0.2,0.7c-0.1,0.2-0.3,0.3-0.5,0.4c-0.2,0.1-0.5,0.1-0.8,0.1h-1.1V24.5z M132.4,31
			c-0.2,0.2-0.4,0.4-0.7,0.5c-0.3,0.1-0.6,0.1-1,0.1h-1.4v-2.8h1.4c0.3,0,0.5,0,0.7,0.1c0.2,0,0.4,0.1,0.6,0.2
			c0.2,0.1,0.3,0.2,0.4,0.4c0.1,0.2,0.1,0.4,0.1,0.6C132.6,30.5,132.6,30.8,132.4,31z"/>
		<polygon class="st1" points="140.2,22.4 137.4,22.4 137.4,33.8 144.7,33.8 144.7,31.4 140.2,31.4 		"/>
		<polygon class="st1" points="147.8,22.4 146,22.4 146,33.8 147.8,33.8 148.6,33.8 153.6,33.8 153.6,31.5 148.6,31.5 148.6,28.9 
			153.2,28.9 153.2,26.7 148.6,26.7 148.6,24.6 153.6,24.6 153.6,22.4 148.6,22.4 		"/>
		<path class="st1" d="M101.3,22.4c-0.3-0.1-0.7-0.2-1.1-0.2c-0.4,0-0.8,0.1-1.1,0.2c-0.3,0.1-0.6,0.3-0.9,0.6s-0.5,0.5-0.6,0.9
			c-0.1,0.3-0.2,0.7-0.2,1.1c0,0.4,0.1,0.8,0.2,1.1c0.1,0.3,0.3,0.6,0.6,0.9c0.3,0.3,0.6,0.4,0.9,0.6c0.3,0.1,0.7,0.2,1.1,0.2
			c0.4,0,0.8-0.1,1.2-0.2c0.4-0.1,0.7-0.3,0.9-0.6c0.3-0.3,0.4-0.5,0.6-0.9c0.1-0.3,0.2-0.7,0.2-1.1c0-0.4-0.1-0.8-0.2-1.1
			c-0.1-0.3-0.3-0.6-0.6-0.9C101.9,22.8,101.6,22.6,101.3,22.4z M101.3,25.7c-0.1,0.2-0.3,0.4-0.5,0.5c-0.2,0.1-0.4,0.2-0.7,0.2
			c-0.3,0-0.5-0.1-0.7-0.2c-0.2-0.1-0.4-0.3-0.5-0.5c-0.1-0.2-0.2-0.5-0.2-0.7c0-0.3,0.1-0.5,0.2-0.7c0.1-0.2,0.3-0.4,0.5-0.5
			c0.2-0.1,0.4-0.2,0.7-0.2c0.3,0,0.5,0.1,0.7,0.2c0.2,0.1,0.3,0.3,0.5,0.5c0.1,0.2,0.2,0.5,0.2,0.7
			C101.4,25.3,101.4,25.5,101.3,25.7z"/>
		<polygon class="st1" points="107,24.5 105.1,24.5 105.1,23.6 107.1,23.6 107.1,22.4 105.1,22.4 104.7,22.4 103.7,22.4 103.7,27.6 
			105.1,27.6 105.1,25.6 107,25.6 		"/>
		<polygon class="st1" points="94.7,29.8 96.2,29.8 96.2,33.7 97.6,33.7 97.6,29.8 99.1,29.8 99.1,28.5 94.7,28.5 		"/>
		<polygon class="st1" points="103.2,30.4 101.1,30.4 101.1,28.5 99.7,28.5 99.7,33.7 101.1,33.7 101.1,31.7 103.2,31.7 103.2,33.7 
			104.6,33.7 104.6,28.5 103.2,28.5 		"/>
		<polygon class="st1" points="106.7,28.5 105.7,28.5 105.7,33.7 106.7,33.7 107.1,33.7 109.3,33.7 109.3,32.6 107.1,32.6 
			107.1,31.6 109.1,31.6 109.1,30.5 107.1,30.5 107.1,29.7 109.3,29.7 109.3,28.5 107.1,28.5 		"/>
	</g>
</g>
</svg>
